<svg xmlns="http://www.w3.org/2000/svg" viewBox="0 0 656.84 507.61"><defs><style>.cls-1{fill:#3fbbff;}.cls-2{fill:#1facea;}.cls-3{fill:#00dd3f;}.cls-4{fill:#3aef69;}.cls-5{fill:#71ff92;}.cls-6{fill:#0d8e91;}.cls-7{fill:#114e51;}.cls-8{fill:#053942;}.cls-9{fill:#004951;}.cls-10{fill:#03292b;}.cls-11{fill:#cbcea3;}.cls-12{fill:#edefac;}.cls-13{fill:#848363;}.cls-14{fill:#7c7b61;}.cls-15{fill:#706f55;}.cls-16{fill:#595845;}.cls-17{fill:#444335;}.cls-18{fill:#e2616b;}.cls-19{fill:#dd4a5c;}</style></defs><title>logo_lucas</title><g id="Calque_4" data-name="Calque 4"><path class="cls-1" d="M559,95.32A231.36,231.36,0,0,0,427.47,54.61c-5.78,0-11.57.25-17.26.67-120.56,8.8-215.65,109.41-215.65,232.23A231.86,231.86,0,0,0,245.61,433a5.15,5.15,0,0,1,4.56-2.94,34.85,34.85,0,0,1,5.37.51c21.67-11.8,40.89-28.91,60.49-43.4,20.11-14.86,43.59-29.36,69.69-26.61,23.53,2.48,37.21,19.21,45.15,39.09,6.46-6.79,11.21-15,17.27-22.14,7.5-8.88,17-14.27,28.64-15.43,13-1.29,26.72,1.68,38.92,5.91,12.86,4.46,23.78,11.62,34.64,19.71,11.92,8.88,23.34,18.44,35.46,27.06,8.25,5.87,18.36,8.58,26.71,14.13A232.86,232.86,0,0,0,559,95.32Z" transform="translate(-100.76 -54.61)"/><path class="cls-2" d="M559,95.32a231,231,0,0,0-46.5-24.63,232.78,232.78,0,0,1,11.61,300.74c9.36,4.33,17.82,10,26.23,16.3,11.92,8.88,23.34,18.44,35.46,27.06,8.25,5.87,18.36,8.58,26.71,14.13A232.86,232.86,0,0,0,559,95.32Z" transform="translate(-100.76 -54.61)"/><path class="cls-3" d="M250.17,430.09a34.85,34.85,0,0,1,5.37.51c13.48-7.34,26-16.74,38.28-26.28,1.36-19.61,75.09-64-23.44-58.75-47.67,2.51-32.09-95.84,31.67-71.63,53.37,20.19,80.43-2.93,70.54-41.39-12.9-50.1-17-50.85,46.08-69.11,55-16,14.33-77.41-8.46-108.25-5.62.42-11.14,1.09-16.59,1.85C281,73.46,194.56,170.39,194.56,287.51A231.86,231.86,0,0,0,245.61,433,5.15,5.15,0,0,1,250.17,430.09Z" transform="translate(-100.76 -54.61)"/><path class="cls-3" d="M660.37,287.51a224.27,224.27,0,0,1-1.09,22.54,220.9,220.9,0,0,1-3.52,23.71c-14.24-4.78-28.9-9-43.23-10.31-74.56-6.78-2.68-96.26-86.79-112.51C456.62,197.53,530.51,121.8,559,95.32c5.11,3.52,10,7.13,14.74,11A232.34,232.34,0,0,1,660.37,287.51Z" transform="translate(-100.76 -54.61)"/><path class="cls-3" d="M459.83,367.56a41.29,41.29,0,0,1,16.95-5.45c13-1.29,26.72,1.68,38.92,5.91,12.86,4.46,23.78,11.62,34.64,19.71,8.44,6.29,16.63,12.9,25,19.29,11.79-48.94-57.4-78.43-60.32-105.18-3-28.49-60.15-14.24-53.87,45.74A53.92,53.92,0,0,1,459.83,367.56Z" transform="translate(-100.76 -54.61)"/><path class="cls-4" d="M488.12,331.08a112.08,112.08,0,0,1-.82,30.86A107.05,107.05,0,0,1,515.7,368c12.86,4.46,23.78,11.62,34.64,19.71,2.39,1.78,4.76,3.6,7.12,5.42a31.77,31.77,0,0,0-3.74-10c-6.54-11.9-19.19-24.3-31.5-36.28-7.21-7-14.49-14.07-21-21.61a7.46,7.46,0,0,0-13.15,5.53Z" transform="translate(-100.76 -54.61)"/><path class="cls-5" d="M511.76,366.72c-.63-.67-1.26-1.36-1.86-2.05a3.23,3.23,0,0,0-5,.11C507.23,365.37,509.52,366,511.76,366.72Z" transform="translate(-100.76 -54.61)"/><path class="cls-4" d="M245.68,432.91a5.11,5.11,0,0,1,4.49-2.82,34.85,34.85,0,0,1,5.37.51,215.45,215.45,0,0,0,22.57-14.44c3.84-22.09,27.63-45.76,25.36-53.08-3.35-10.72-65,7.87-79.25-35.86s27-98,68.11-80.34c47,20.36,60,3.1,53.87-40.63s11.73-49.6,59.57-65.85C435.26,130.34,414.15,88,393.62,57a223,223,0,0,0-31,6.71C266.7,91.39,196.24,179.1,194.56,283.49v3.94a231.73,231.73,0,0,0,48.34,142C243.81,430.61,244.75,431.75,245.68,432.91Z" transform="translate(-100.76 -54.61)"/><path class="cls-4" d="M660.37,287.51c0,1.51,0,3-.08,4.53-.09,6-.42,12.06-1,18-70.12-7.46-66.77-29.07-72.47-70-6.11-43.39-24.38-41.38-61.66-54.2-30.08-10.39,26-60.57,48.68-79.51a232.9,232.9,0,0,1,86.54,181.13Z" transform="translate(-100.76 -54.61)"/><path class="cls-5" d="M660.37,287.51c0,1.51,0,3-.08,4.53-39.72-6.12-44.91-47.17-48.26-71.22-4.11-29.4-36-38.2-40.47-58.89-3.18-15.08,16.17-27.06,26.9-32.51A232,232,0,0,1,660.37,287.51Z" transform="translate(-100.76 -54.61)"/><path class="cls-5" d="M372.59,123.89c-42.73,23.38-53.87,31.5-51.86,62s6.12,56-44.74,39.63c-37.78-12.07-54.79,39.2-81.43,58,1.68-104.38,72.14-192.1,168.06-219.83C380.21,81.25,400.24,108.73,372.59,123.89Z" transform="translate(-100.76 -54.61)"/><path class="cls-5" d="M253.88,396.67C249.6,410,245.25,421,242.82,429.6a232.68,232.68,0,0,1-32.67-57.89C232.77,372.55,260.08,377.41,253.88,396.67Z" transform="translate(-100.76 -54.61)"/><path class="cls-4" d="M468.43,231.13a28.72,28.72,0,0,0-17.34-27.4c-11.9-5.11-23.46-9.38-32.92,3.44A32.81,32.81,0,0,0,413.06,235c1.59,6.12,3.26,12.65,3.26,12.82-9.13,31.17-6.45,58.14,19.36,41.39S467.76,248.39,468.43,231.13Z" transform="translate(-100.76 -54.61)"/><path class="cls-5" d="M428.14,277.88a2,2,0,0,1-3.1-1.68c0-5.28,1-13.49,4.27-24.46,1.09-3.86,1.09-3.86-3.1-20.11a19.34,19.34,0,0,1,2.93-16.34c2.18-2.93,3.35-2.93,4.27-2.93,3.36,0,9,2.43,12.4,3.94A15.33,15.33,0,0,1,455,230.71c-.92,20.19-10,36.11-26.89,47.17Z" transform="translate(-100.76 -54.61)"/></g><g id="Calque_8" data-name="Calque 8"><path class="cls-6" d="M409.63,481.16H284.69c-2.09.87-4.19,1.71-6.31,2.48a246.21,246.21,0,0,0-24,9.83c-7.92,3.86-15.92,6.95-24.83,7.19a4.39,4.39,0,0,1-4.21-2.32,131.79,131.79,0,0,1-16.69,2.15c-3.71,1-7.44,1.94-11.21,2.72-10.83,2.24-21.51,2.66-32.54,2.66-5.35,0-10.7.2-16-.64s-10.59-2.68-16-3.24c-3.87-.4-6.79-5-3.86-8.2-3-2.57-4.15-7.78-3.76-12.63H113.05a12,12,0,0,0-12,12v13.63a12,12,0,0,0,12,12H409.63a12,12,0,0,0,12-12V493.16A12,12,0,0,0,409.63,481.16Z" transform="translate(-100.76 -54.61)"/><path class="cls-6" d="M745.59,481.16h-9.75a4.22,4.22,0,0,1,.41.43,6.77,6.77,0,0,1,1.23,2.44c4.36.09,7.27,6,3.24,8.8,1.48,2.19,1.43,5.23-1.64,6.63-22,10-44.89,10.35-68.43,6-12.6-2.34-25.16-5.43-37.66-8.26a47.09,47.09,0,0,1-14.32-5.4c-2-1.19-4.23-2.91-6.57-4.15H612l-1.33-.18h0a125,125,0,0,1-24.24-6.29H449a12,12,0,0,0-12,12v13.63a12,12,0,0,0,12,12H745.59a12,12,0,0,0,12-12V493.16A12,12,0,0,0,745.59,481.16Z" transform="translate(-100.76 -54.61)"/><path class="cls-7" d="M409.34,488.32H266.06c-3.91,1.58-7.78,3.26-11.66,5.15-7.92,3.86-15.92,6.95-24.83,7.19a4.39,4.39,0,0,1-4.21-2.32,131.79,131.79,0,0,1-16.69,2.15c-3.71,1-7.44,1.94-11.21,2.72-10.83,2.24-21.51,2.66-32.54,2.66-5.35,0-10.7.2-16-.64s-10.59-2.68-16-3.24c-3.87-.4-6.79-5-3.86-8.2a10.75,10.75,0,0,1-3.16-5.47H112.76a12,12,0,0,0-12,12V514a12,12,0,0,0,12,12H409.34a12,12,0,0,0,12-12V500.32A12,12,0,0,0,409.34,488.32Z" transform="translate(-100.76 -54.61)"/><path class="cls-7" d="M745.3,488.32h-2.78a4.2,4.2,0,0,1-1.8,4.51c1.48,2.19,1.43,5.23-1.64,6.63-22,10-44.89,10.35-68.43,6-12.6-2.34-25.16-5.43-37.66-8.26a47.09,47.09,0,0,1-14.32-5.4c-1.64-1-3.46-2.33-5.36-3.47H448.72a12,12,0,0,0-12,12V514a12,12,0,0,0,12,12H745.3a12,12,0,0,0,12-12V500.32A12,12,0,0,0,745.3,488.32Z" transform="translate(-100.76 -54.61)"/><rect class="cls-6" x="293.86" y="426.55" width="90.32" height="37.63" rx="12" ry="12"/><rect class="cls-8" x="293.57" y="433.71" width="90.32" height="37.63" rx="12" ry="12"/><path class="cls-9" d="M290.48,460l2.39-.49a11.72,11.72,0,0,0,1.48-.51,13.08,13.08,0,0,0-2.84-.86c-.5.65-1,1.29-1.54,1.92Z" transform="translate(-100.76 -54.61)"/><path class="cls-9" d="M584.51,451.48q7.79,3.15,15.62,6.17a3.88,3.88,0,0,1,.49-.4C595.26,455.22,589.93,453.18,584.51,451.48Z" transform="translate(-100.76 -54.61)"/><path class="cls-9" d="M653.43,460.18c-.54-.12-1.08-.24-1.61-.34-2-.38-4.09-.7-6.14-1C648.26,459.32,650.84,459.75,653.43,460.18Z" transform="translate(-100.76 -54.61)"/><path class="cls-9" d="M686.37,480c-5-2.29-10.74-2.54-16.18-2.85-3.63-.21-7.22-.51-10.81-.9l-.89,0c-2.27,0-4.56-.12-6.84-.23l.65.27A294.51,294.51,0,0,0,686.37,480Z" transform="translate(-100.76 -54.61)"/><path class="cls-9" d="M724.72,478.55a4.51,4.51,0,0,1,.58,1.47l1.33,0c3-.12,7-1.07,9.28,1.25l14.49-.06L717.5,472A19.71,19.71,0,0,1,724.72,478.55Z" transform="translate(-100.76 -54.61)"/><path class="cls-9" d="M453.28,454.31c.79-.37,1.59-.72,2.38-1.05l-1.33,0c-.82.55-1.62,1.11-2.41,1.69Z" transform="translate(-100.76 -54.61)"/><path class="cls-10" d="M567.75,474.3a325.79,325.79,0,0,0-45.81-13.24c-15.25-3-30.68-4.43-46.19-2.65a60.43,60.43,0,0,0-21.07,6.33c-6.18,3.11-12.27,6.36-19,8.13A5,5,0,0,1,434,473v0c-1,4.4-6.93,4.62-9.14,1.2-2.63-4.09-2.59-8.35-7.55-10.3-6.28-2.47-14-3.7-20.67-4.31-14.79-1.36-28.79,2.32-43.4,3.33-7.33.51-14.56.25-21.73,2.11l-2.35.59c-11.54,7.17-25.51,11-39.05,13.2-3.63,1.61-7.28,3.16-11,4.54l309.59-1.46C581.65,479.55,574.74,476.81,567.75,474.3Z" transform="translate(-100.76 -54.61)"/><path class="cls-9" d="M443.29,447.86l-5.8.36c.41,3.57-2.47,6.77-6.43,8.34a16,16,0,0,1,2.22,3.68A62.26,62.26,0,0,1,443.29,447.86Z" transform="translate(-100.76 -54.61)"/><path class="cls-9" d="M262.42,478.56a1.79,1.79,0,0,1,.32.13c5.13-1.95,10.36-3.59,15.48-5.63C272.89,474.34,267.17,475.72,262.42,478.56Z" transform="translate(-100.76 -54.61)"/><path class="cls-9" d="M306.91,456.4c.06.13.14.25.19.39l2.86-.58Z" transform="translate(-100.76 -54.61)"/><path class="cls-10" d="M127.7,473.19l-22.62,11,20.17-.1C125.05,480.07,126,475.87,127.7,473.19Z" transform="translate(-100.76 -54.61)"/><path class="cls-9" d="M133.78,471.4a23.43,23.43,0,0,1,10.15-4.8l-3.09.2L132.26,471A5.74,5.74,0,0,1,133.78,471.4Z" transform="translate(-100.76 -54.61)"/></g><g id="Calque_9" data-name="Calque 9"><path class="cls-11" d="M137.13,463.54a56.42,56.42,0,0,0,14.29-9.16c2.11-1.78,4.1-3.68,6-5.64s3.83-4.79,6-6.29l-4.58.6c-1.92-.49-2.32-1.37-.9,1a18.34,18.34,0,0,0,2.2,3,17.48,17.48,0,0,0,6,4.18c7,3,13-7.28,6-10.28-4.18-1.79-4.06-5.64-7.33-8.13-4.17-3.2-8.17-.51-11.18,2.7-6.65,7.09-13.43,13.84-22.51,17.72-7,3-1,13.26,6,10.28Z" transform="translate(-100.76 -54.61)"/><path class="cls-11" d="M146.57,468.32l.73-.4-4.59.6-1.16-.57-1.74-4.21c0,1-3.48,8.27-4.92,7.1L130.68,481l13.32.89-4.21-10.16c-1.19,1.37-3.28,1.46-4.95,2.08a14.4,14.4,0,0,0-5.7,3.56,13.93,13.93,0,0,0-2.86,12.93c2.34,8.47,11.51,12.79,19.44,14.37,23.62,4.72,49,.38,72.5-3.14,24-3.59,45.5-13.06,68-21.56,22.9-8.65,46.82-13.94,70.71-19,11.86-2.52,24.33-5,36.49-3.27,13,1.87,21,10.71,32.18,16.47,6.85,3.55,12.33-6,6-10.28C417,454,399.7,449.7,382.32,447.84a229.7,229.7,0,0,0-60.06,1.76c-39,6.14-75.44,22.84-114.45,28.93-22.91,3.58-46.3,3.41-69.36,1.55-7-.57-7.57,9.59-1.58,11.69A108.65,108.65,0,0,0,190,496.36l-3.16-11.48a43.93,43.93,0,0,1-16.87,0l-1.58,11.7a333.34,333.34,0,0,0,111-21.68c7-2.68,4.28-13.81-3.16-11.48-12.75,4-25.74,7.33-39,8.87-7.53.87-7.61,12.79,0,11.91a230.87,230.87,0,0,0,42.19-9.3l-3.16-11.48A323.56,323.56,0,0,1,168.4,484.64c-6.45.15-8.41,10.37-1.58,11.7a59.92,59.92,0,0,0,23.19,0c7.61-1.45,4.27-12.63-3.16-11.48A96.28,96.28,0,0,1,140,480.29L138.45,492c19.81,1.6,39.74,1.87,59.52-.25,19-2.05,37.51-6.5,55.84-11.87,18.56-5.43,37-11.52,55.85-15.75a226.05,226.05,0,0,1,59-5.36c19.86.83,40.16,4,56.91,15.42l6-10.28c-9-4.62-16.07-11.76-25.66-15.28s-19.93-3.82-29.86-2.83c-21.34,2.12-42.92,7.73-63.6,13.29-21.79,5.85-42.12,15.1-63.34,22.56S205.28,492,182.86,493.9c-11.88,1-24.9,1.84-36.55-1.29-2.35-.63-9.7-3-8.59-6.66.42-1.38,3.35-1.56,4.49-2a13.65,13.65,0,0,0,6-3.83A6,6,0,0,0,144,470l-13.32-.89c-4.91-.33-8.19,6.93-4.21,10.16,7.62,6.2,17,2.73,21.77-5.21,2.11-3.54,4.7-8.46,3-12.59-1.82-4.32-6.71-5.59-10.63-3.41-6.7,3.72-.7,14,6,10.28Z" transform="translate(-100.76 -54.61)"/><path class="cls-11" d="M148.19,478.66c19.33,1,38.79,2,58.07-.33,18.64-2.23,36.86-7.13,55.06-11.59,19-4.64,37.91-9.48,56.6-15.18,8.88-2.71,17.67-5.84,26.71-8A148.17,148.17,0,0,1,372.71,440c17.33-.79,38.44-3.45,53.32,7.37l6-10.28c-15.49-8.5-32.75-11.84-50.2-13.29a333.83,333.83,0,0,0-50.3-.39c-33.66,2.3-67,10.25-96.52,27-5,2.84-3,11.34,3,11.09,17-.72,34-1.74,50.35-6.93,15.55-4.95,30.76-12.44,47.47-11.34v-11.9a140.08,140.08,0,0,1-34.36.09v11.9c43.37.79,87,1.65,129.5,11.44,7.46,1.72,10.64-9.76,3.17-11.48-43.5-10-88.24-11-132.67-11.86-7.86-.14-7.4,11,0,11.9a139.1,139.1,0,0,0,34.36-.09c7.46-.94,7.83-11.38,0-11.9-16.62-1.1-31.86,5.45-47.27,10.65-16.51,5.57-33.25,6.88-50.55,7.61l3,11.1c27.65-15.66,59-23.19,90.51-25.35a339.69,339.69,0,0,1,46.78.12c16.48,1.14,33.07,3.9,47.71,11.93,6.85,3.76,12.11-5.85,6-10.28-13.35-9.7-30.43-9.77-46.25-9.41-19.28.45-37.8,2-56.31,7.75s-37.25,11.26-56.15,16.05-38,10-57.33,13.43c-22.42,4-45.18,3-67.81,1.83-7.66-.39-7.64,11.52,0,11.91Z" transform="translate(-100.76 -54.61)"/><path class="cls-11" d="M154.63,463.17A342.94,342.94,0,0,0,242,457.49c6.49-1.26,5.12-12.47-1.59-11.69-14.82,1.71-29.06,5.87-43.58,9.1a129.22,129.22,0,0,1-21.59,3.24A79.94,79.94,0,0,1,164,458a50.89,50.89,0,0,1-5.76-.83c-1.09-.21-6.17-2.37-3.84.26,1.55,1.74.69.9,2.48-.06a10.08,10.08,0,0,1,3.24-.94,32.1,32.1,0,0,1,8.42.25c7.13.9,14.18,2.13,21.35,2.72a218,218,0,0,0,46.17-1.25c7.37-1,7.9-11.63,0-11.9l-13-.45,1.59,11.7A368.66,368.66,0,0,0,332,396.55c2.93-2.39,1.94-7.69-1.2-9.35-10.33-5.46-19.17,3.21-26.78,9.35l-28.51,23c-6,4.81,2.5,13.19,8.42,8.42l21-16.94,10.51-8.47c1.89-1.53,6.66-6.49,9.35-5.07l-1.21-9.35a351.63,351.63,0,0,1-102,57.88c-6.19,2.24-5.38,11.45,1.58,11.69l13,.44v-11.9a215,215,0,0,1-55.75.24c-7.65-1-15.39-3-23.11-1.58-6.31,1.16-13.1,5.5-14,12.35-1.3,9.55,9.5,11.18,16.48,12.15a95.14,95.14,0,0,0,26.43-.46c18.32-2.59,35.86-9.12,54.25-11.24L238.79,446a330.35,330.35,0,0,1-84.16,5.25c-7.65-.49-7.62,11.42,0,11.91Z" transform="translate(-100.76 -54.61)"/><path class="cls-11" d="M294.47,437.05,297,425c1.6-7.65-8.66-10.18-11.48-3.17a38.4,38.4,0,0,1-8.26,12.47l8.42,8.42a84.2,84.2,0,0,1,31.45-21.44l-6.72-8.75a27.61,27.61,0,0,1-14,13.49l7.21.93c.44,2,.92,2.12,1.46.49l.89-1.3a39.36,39.36,0,0,1,3-3.72,53.07,53.07,0,0,1,6.83-6.49,51.23,51.23,0,0,1,16.75-8.59L325.16,400a32.78,32.78,0,0,1-15,17.63l8.75,3.55c-2.42-7.25,3.48-14.32,8.83-18.59a33.29,33.29,0,0,1,9.66-5.36c1-.34,2-.64,3-.9,1.75-.09,1.28-.57-1.4-1.42-.35.12-1.31,3.2-1.66,3.84a27.63,27.63,0,0,1-6.54,8c-.57.47-4.9,2.83-5,3.26q2.43,3.81,2.09,1.44l.15-.87c1.54-2.87,2-5.56,4.61-7.92,1.39-1.27,6.13-4.89,8.23-4.05,4.08,1.64-8.6,16.08-10.21,17.65a50.73,50.73,0,0,1-4.38,3.91,22.29,22.29,0,0,1-2.65,1.88c2.09,2.58,3.08,3.08,3,1.53.43-.34.9-3.76,1.2-4.47a22.81,22.81,0,0,1,2.32-4.15,23.07,23.07,0,0,1,6.95-6.5c1.28-.77,3.12-1.19,4.28-2q3.8-.42-1-4a9.21,9.21,0,0,1-.72,1.75c-2.07,3.08-3.46,6.31-6,9.12a39.51,39.51,0,0,1-9,7.42l8.15,2.14c-.69-1,9-10.37,10.28-11.55a65.56,65.56,0,0,1,14.94-10.1c.63-.31,3-.88,3.34-1.48q-2.71-6.14-3.94-3.11c-.31.64-.65,1.27-1,1.89a38.93,38.93,0,0,1-4.95,7,44,44,0,0,1-14.33,10.5l8.74,3.56c-1.46-4.37,6.9-10.47,9.9-12.86a56.3,56.3,0,0,1,6.65-4.51c1.37-.81,2.78-1.58,4.21-2.28l1.44-.68c1.73-.39,1.52-.77-.65-1.15l-.93-7.22A70.73,70.73,0,0,1,335.16,422l8.74,3.56c-.6-2.72,3.33-6.19,5-8a72.57,72.57,0,0,1,7.16-6.76,65.78,65.78,0,0,1,8.19-5.69c.77-.45,6.77-3.94,6.94-3.78l-.93-7.21a77.79,77.79,0,0,1-9.31,11.34c-1.61,1.61-3.28,3.16-5,4.63-.89.76-1.8,1.5-2.73,2.21-.47.37-1,.72-1.45,1.07q-1.86,1.05,1.12.36l3.56,2.74c0,1.16.23,1.14.65-.06l.76-1.33c.77-1.31,1.59-2.6,2.46-3.85a51.73,51.73,0,0,1,5.92-7,55,55,0,0,1,14.2-10.18c1.13-.56,2.27-1.11,3.45-1.57a21.93,21.93,0,0,1,2.62-.91l-1.5-2.53c-.8.3-2.6,6.56-3.25,7.72-2.78,4.94-6.42,8.85-12.11,10.06l7.32,7.33a30.93,30.93,0,0,1,24.52-19.62l-5.74-7.53a40.74,40.74,0,0,1-23.67,26.47l8.74,3.55c-.45-2.14,7.37-7.36,8.76-8.37,3.6-2.62,7.42-4.74,11.95-4.89l-5.14-9a87.26,87.26,0,0,1-28.51,25.44l-1.41.77c-1.45.15-1.79.72-1,1.69a6.75,6.75,0,0,1,1.14-3.06,13.28,13.28,0,0,1,5.06-4.78,22.26,22.26,0,0,1,14.63-2.35l-2.63-9.95A66.86,66.86,0,0,1,365.3,415.5q-2.21,1-4.48,1.87c-1,.37-2,.72-3,1q-4.73.68,2.24,4.52c.81-.29,2.15-2.55,2.8-3.16a25.76,25.76,0,0,1,4.27-3.23,27.81,27.81,0,0,1,9.2-3.58c2-.39,4.11,0,6-.41l.8.16c1.48.75,1.21.23-.83-1.54-.46-.05-2.63,2.7-3.23,3.22a30.89,30.89,0,0,1-5,3.49,34.22,34.22,0,0,1-10,3.63l7.54,5.74c.35-11.31,10.53-20.17,21.65-19.69L387.55,400a20.52,20.52,0,0,1-13.67,14.88l6.72,2.74q-.19,2.57,1.14.37a30.88,30.88,0,0,1,2.33-2.1,25.56,25.56,0,0,1,3.95-2.46c1.72-.88,7.47-3.72,9.13-2.53l-2.73-3.56c.89,2.29-5.59,6.66-6.77,7.91l-1.24.76,1.3,1c.14-.24-.19-1-.08-1.37.64-1.9.87-3.77,1.8-5.64a18.72,18.72,0,0,1,3.33-4.65c.26-.28,1.47-1.4,1.28-1.23-.85-.66-.25-1.13,1.81-1.43q2.61-2.54,1.93-.41c-1.73-.29,1.26,1.2.77.52.09.13.52,0,.72.28a4.66,4.66,0,0,1,.26,4.51l9.35-1.2a31.94,31.94,0,0,1-2.27-3c-1.63,0,.52,2.54.71,2.92a9.89,9.89,0,0,1,.79,4.6,11,11,0,0,1-.58,3.51c-1.15,1.22-.93,2,.66,2.27,2.33,1.59.94-1,1.31-2.69.21-.94.83-3.12,1.69-2.36,2.18,1.92.54,9-.11,11.1L422,421.34a18.1,18.1,0,0,1-2.53-5.74,11.48,11.48,0,0,1-.38-3.09q.58-2.83-.92-.57l-4.58.6c1.4.25,2.27,6.86,2.4,8.21a24.8,24.8,0,0,1-1.23,10h11.49a24.2,24.2,0,0,1-.58-16.91l-8.74,3.56c4.3,3.26,5.08,9,3.37,13.76l11.7,1.59-1-9.62-11.09,3,1.45,3.19c2.88,6.29,12.48,1.75,10.88-4.59-5.4-21.4-13.55-44.3-36.92-51.2-12.28-3.63-25.44-2-37.57,1.38-13.35,3.72-26.37,8.9-39.44,13.51l6.73,8.74c5.63-9.14,16.6-13.27,26.29-16.68,11-3.85,23.26-7.74,35-7.32,12.14.44,18.81,9.72,24.61,19.3a100.71,100.71,0,0,1,12.44,32.17c1.34,6.47,12.39,5.14,11.7-1.58-2-19.85-10.3-44.57-28.57-55.33-19.21-11.31-44.2,2.71-58.05,16.63-4.06,4.08,0,11.82,5.79,9.95,18.53-6,33.69,15.29,42.67,28.36,4.34,6.31,7.77,14.18,14.24,18.64,6.64,4.59,17,5.11,24.65,3.49,7.49-1.59,4.32-13.07-3.17-11.48-3.73.79-9.37.59-12.95-.85s-5.5-4.93-7.45-8a191.09,191.09,0,0,0-15.49-21.5c-11.19-13.31-27.18-26.12-45.66-20.13l5.79,9.95c10.16-10.2,30.56-23.64,44.85-14,13.46,9.09,19.87,29,21.44,44.29l11.7-1.59A110.22,110.22,0,0,0,419,382.88c-7.67-11.57-16.58-20.44-31.05-21.56-13.81-1.06-28.71,3.62-41.52,8.29-12.25,4.45-24.57,10-31.67,21.52-2.6,4.24,1.77,10.5,6.73,8.75,11.34-4,22.63-8.25,34.08-11.9,10.68-3.4,22.18-6.14,33.38-3.8,21.07,4.42,27.19,25.36,31.82,43.69l10.88-4.58-1.45-3.19c-2.41-5.26-11.68-2.77-11.1,3l1,9.62c.67,6.64,9.36,8.12,11.69,1.58,3.65-10.25-.43-20.83-8.84-27.21-3.23-2.45-7.7.28-8.75,3.55a34.81,34.81,0,0,0,.57,23.25c2.06,5.34,9.65,5.94,11.49,0A36.69,36.69,0,0,0,427,415c-1.16-5.21-3.66-12-9.28-13.79-5.79-1.84-9.83,2.9-10.42,8.14a28.16,28.16,0,0,0,4.36,18,6,6,0,0,0,10.88-1.43c2.06-6.73,2.18-15.15-1.79-21.28-3.63-5.58-11.21-6.61-16.64-3.05-10,6.58-8.4,31.78,6.91,25.77,12.22-4.8,11.73-27,1-33.1-5.45-3.09-13.07-1.76-16.11,4.05s.09,12.47,4.55,16.5c2.55,2.3,7.71,2.5,9.35-1.21,3.17-7.16,2.83-16.67-4.76-21-5.84-3.37-14.43-1.49-17.68,4.63-3.67,6.92,1.92,16.39,10,15.68s10.39-10,6-15.89c-5.47-7.38-15.22-4.6-20.49,1.44-4.78,5.49-8.66,14.31-6.62,21.65,5.26,19,32-.55,30.2-13.9C404.93,395,390,399.4,383.4,402.49c-6.95,3.26-19.13,12.33-13.08,21.16,1.45,2.11,4.11,3.58,6.73,2.73a32.8,32.8,0,0,0,22-23.19,6,6,0,0,0-5.74-7.54c-17.71-.76-33,14.05-33.56,31.6-.12,4.06,3.89,6.51,7.54,5.74a44,44,0,0,0,17.84-8.26c4.61-3.58,11.33-9.38,9.52-16-3.58-13.17-24.1-7.67-32.22-3.23-5.05,2.76-10.76,7.14-13.15,12.54-2.54,5.73.26,13,7.32,12.8,6.27-.17,13.65-4.27,19-7.27A79.14,79.14,0,0,0,392,411.08c3-2.92,1.88-9.16-2.62-9.95-9.19-1.61-18.94-.3-26.55,5.4-6.81,5.1-13.2,16.27-6.81,24.11,7.3,8.95,20.51-1.14,27.23-6a103.39,103.39,0,0,0,23.36-23.69c2.64-3.7-.9-9.1-5.14-9-8.44.27-15.26,4.22-21.71,9.38-6.09,4.9-12.29,10.41-10.48,18.95.89,4.15,5.47,5,8.75,3.56a51.91,51.91,0,0,0,29.14-33.59c1-3.35-1.83-8-5.74-7.53a43.43,43.43,0,0,0-36,28.35c-1.69,4.56,3.27,8.19,7.32,7.33,6.65-1.42,12-5.42,16-10.75,3.65-4.79,7.92-12,8.08-18.22.19-7.62-7-10.93-13.58-9.25-6.89,1.75-13.64,5.94-19.19,10.23a66.52,66.52,0,0,0-14.55,15.49c-3.26,4.81-7.59,11.81-3,17.23,5.56,6.53,13.21-.72,17.74-4.57a91.13,91.13,0,0,0,16.18-18.38,6,6,0,0,0-.93-7.22c-8.68-8.44-22.13,1.82-29.48,7.5-8.38,6.48-20.29,16.49-17.69,28.3.87,4,5.5,5.19,8.75,3.55a81.48,81.48,0,0,0,35.7-35.38,6.12,6.12,0,0,0-.93-7.21c-7.41-7.6-20.35,2.34-26.63,7.17-7.55,5.8-18.42,15.18-14.82,25.89,1.31,3.88,5.15,5.25,8.75,3.56a53.34,53.34,0,0,0,22.35-19.76c2.25-3.56,5.09-8.23,3.89-12.64-1.33-4.93-6.58-6.88-11.2-5.63-9,2.44-18,9.38-24.68,15.71-5.76,5.46-17.1,16.33-11,24.91,1.84,2.58,5.19,3.93,8.14,2.13,9-5.47,20.32-16.12,21.54-27.29.66-6.07-3.74-10.2-9.7-9.68-5.39.46-10.72,3.34-14.91,6.61-7.21,5.63-16.87,19.1-11.55,28.7,7.24,13,23.08-4,28.12-10.25,6.3-7.86,15.62-23.3,3.23-30.67-9.59-5.71-22.55,3.31-27.57,11.28-2.6,4.12-4.51,9.59-3.57,14.47,1.06,5.49,5.74,9.38,11.51,7.9,10.25-2.62,20-14.05,22.68-24,1.62-6.17-1.09-12.8-8-13.64-6.1-.75-13.23,2.82-18.2,6-10.83,7-21.46,20.28-16.91,33.9a6,6,0,0,0,8.74,3.56,45.42,45.42,0,0,0,20.44-24.75c1.52-4.28-3.17-8.59-7.32-7.32a63.94,63.94,0,0,0-26.11,15.31c-6.24,6.08-14.94,15.7-8,24.2,1.78,2.18,5,1.95,7.22.93a37.69,37.69,0,0,0,18.28-17.76c2.05-4.16-1.45-10.76-6.72-8.74a97.37,97.37,0,0,0-36.71,24.5c-5.21,5.59,3.08,13.95,8.42,8.42A53.49,53.49,0,0,0,297,425l-11.48-3.17-2.51,12c-1.56,7.48,9.92,10.68,11.48,3.17Z" transform="translate(-100.76 -54.61)"/><path class="cls-11" d="M134.45,477.86a64.07,64.07,0,0,1,9.16-7.65,6.09,6.09,0,0,0,2.13-8.14c-1.54-2.63-5.48-4-8.14-2.14A81.17,81.17,0,0,0,126,469.44c-5.43,5.41,3,13.84,8.42,8.42Z" transform="translate(-100.76 -54.61)"/><path class="cls-11" d="M129.81,501c7.66,0,7.67-11.91,0-11.91s-7.68,11.91,0,11.91Z" transform="translate(-100.76 -54.61)"/><path class="cls-11" d="M129.23,493.26c7.66,0,7.67-11.9,0-11.9s-7.68,11.9,0,11.9Z" transform="translate(-100.76 -54.61)"/><path class="cls-11" d="M129,484.38c7.66,0,7.67-11.91,0-11.91s-7.68,11.91,0,11.91Z" transform="translate(-100.76 -54.61)"/><path class="cls-11" d="M217.68,454.25c7.66,0,7.67-11.9,0-11.9s-7.68,11.9,0,11.9Z" transform="translate(-100.76 -54.61)"/><path class="cls-11" d="M478.13,377a85.15,85.15,0,0,0-28.18,8l24,41.13c1.12-.77,2.37-1.37,3.47-2.15,2.31-1.62-5.23,1.8-.39.28L453.9,384.4l-24,26.9,39.79,23.17c.72-1.91,1.48-3.81,2.21-5.71,2-5.07-2.32,4.93,0,0,1.54-3.25,3.06-6.47,4.88-9.58.77-1.31,1.57-2.6,2.42-3.86.56-.84,1.14-1.66,1.74-2.47q-3.33,4.23-.91,1.31c1.06-1.06,2-2.21,3.1-3.24.73-.69,1.47-1.36,2.24-2q-4.31,3.21-1.2,1c10.2-7.11,15.9-21.18,8.54-32.58-6.75-10.48-21.36-15.74-32.58-8.55a60.63,60.63,0,0,0-14,11.81l37.4,28.86c.9-2,4.37-6-.1-.78q2.72-2.52-1.75,1.13a22,22,0,0,1,2.33-1.39q-5.43,2.1-1.87.81a24.79,24.79,0,0,1,2.69-.72c4.44-1.3-5.07-.19-.79.24,6.33.64-3-1.43,1.4.13,1.4.49,8.67,1.87,2.26.36,3.6.84,7.39,3.75,10.52,5.64,16.48,10,32.39,20.93,47.83,32.4,6.91,5.14,13.53,11.32,21.36,15,2.11,1,4.25,1.87,6.4,2.72q3.58,1.5-1.33-.55a22.9,22.9,0,0,1,2.76,1.48q-3.92-3.17-1-.64a63.15,63.15,0,0,0,12.81,9.6c8,4.34,16.7,6.88,25.52,8.91,3.71.86,7.43,1.68,11.08,2.75.81.24,5.11,2.24,5.71,1.92q-5.06-2.2-1.59-.58c.9.45,1.77.93,2.63,1.44l12-44.37q-4.14-.27.54.35c-1.28-.2-2.55-.44-3.82-.72-2.53-.53-5.05-1.16-7.57-1.75q-6.61-1.56-13.22-3.14c-9.43-2.27-18.84-4.63-28.19-7.23-18-5-35.45-12.34-53.64-16.75s-37.23-6.45-55.76-4.52c-10.16,1.06-20.29,2.64-30,5.75a158.43,158.43,0,0,0-15.45,6c-1.07.46-2.15.94-3.21,1.44-2.43,1.09-2.17,1,.77-.25-1.58,1.25-4.92,1.49-6.84,1.75-5.47.76-11.59,6.43-14.23,10.95-3,5.1-4.26,12.62-2.4,18.35s5.43,11.32,10.94,14.23c6.06,3.2,11.62,3.33,18.35,2.4,6.14-.85,11.89-3.69,17.44-6.31s-4.8,1.7.75-.36c2.17-.8,4.33-1.61,6.54-2.32a115.25,115.25,0,0,1,11.72-3.05c2.1-.44,4.68-1.27,6.83-1.2-6.2-.21-1.13.19.56,0a139.09,139.09,0,0,1,26.13.16c1.16.12,2.32.24,3.48.39-3.43-.48-3.81-.53-1.12-.13,1.72.31,3.46.57,5.18.9q6.45,1.23,12.77,3c17.94,4.95,35.25,11.87,53.25,16.72,9,2.44,18.16,4.67,27.29,6.85,10.83,2.58,21.77,5.69,33,6.06,10,.33,20.71-7.6,23-17.49,2.34-10.27-1.52-21.47-11-26.89-13.14-7.56-27.55-8.84-41.59-13.65-.7-.24-1.39-.53-2.09-.76-2.41-.79,2.3,1,2.3,1-.85-.85-2.79-1.52-3.87-2.11-3.61-1.95,3.23,3.11,0,.06a85,85,0,0,0-8.54-7c-3.8-2.71-8.34-4.43-12.68-6.07.15.06,4.16,2.21,2.08.77-.65-.44-1.45-.76-2.13-1.17a62.43,62.43,0,0,1-5.33-3.69c-12.83-9.64-25.62-19.24-39-28.17-13.79-9.25-28.41-20-44.67-24.29-20.44-5.41-47.28,1.25-56.51,22.25-4.84,11-4,22.91,6.13,30.72,8.66,6.69,23.66,7.28,31.27-1.86a41,41,0,0,1,3.65-3.92c4.39-4.06-3.26,2.08.68-.44l-24-41.13c-18.89,13.17-28.45,32-36.37,53-3.54,9.4,2.28,22.31,10.94,26.89,9,4.76,21.67,4.35,28.86-3.72l24-26.9c6.82-7.65,9.64-19.68,3.72-28.86-5.59-8.67-16.56-14.18-26.89-10.94A54.41,54.41,0,0,0,450,384.94c-10.26,7-15.86,21.24-8.54,32.58,7.45,11.57,20.53,14.32,32.58,8.55,2.37-1.12,2-1-1,.37,1.06-.39,2.13-.75,3.21-1.06,1.49-.44,9-1.62,2-.77,6.53-.8,12-2.14,16.83-7,4.13-4.13,7.24-10.91,7-16.84-.52-11.61-10.57-25.41-23.81-23.81Z" transform="translate(-100.76 -54.61)"/><path class="cls-11" d="M646.69,495.38c24.21,3.95,48.83.35,69.63-13.29h-24l4.58,2.6c2.25,1.28,5,4.51-.1-.67l-6.13-10.51.4,1.17V462l4.41-7-1,1c-1.14.82-2.22,1.84-3.3,2.74-2.42,2,3.48-2.11.71-.64-.44.23-3.13,2.48-3.63,2.21,1.14.62,3.93-2.36,1-.46-2.67,1.73-.38-.79,1.4.08a19.69,19.69,0,0,0-4.12,0c-2.91.2,4.23,1,1.38.2-9.77-2.87-19.31-6.92-29.23-9.27-9.08-2.15-18.39-3-27.57-4.58a97.57,97.57,0,0,1-12.94-3L614.49,442c.14-.29,4.84,2.45,1.46.55a74.28,74.28,0,0,1-6.63-4l-12,44.37c3-.22.78-.24-.95-.46,2.68.33,1.13.72-.5-.48,1.78,1.31,4.55,2,6.57,2.93,4.39,2,8.75,4,13.15,6,10.3,4.57,20.78,9.15,31.73,12a135.33,135.33,0,0,0,33.37,3.76c4.92,0,9.85-.09,14.77.06,2.44.07,4.88.34,7.32.43,3.37.14-4.18-.88-.89-.13,1.48.34,3,.58,4.48.93,12.11,2.82,26.36-3.75,29.3-16.63C738.42,479.13,732,465,719,462c-11.4-2.66-23-3.06-34.64-3-5.23,0-10.47.05-15.69-.37-.37,0-3.53-.56-3.66-.36.32-.47,4.93.88,1,0-2.62-.57-5.22-1.1-7.81-1.81a134.64,134.64,0,0,1-13.54-4.57c-1.12-.43-2.22-.89-3.33-1.34-3.16-1.26,3.81,1.71.71.29-2.46-1.13-5-2.19-7.41-3.31-11.61-5.28-24.23-13.21-37.37-12.24-10.15.75-20.54,6.83-23,17.48-2.5,10.95,1.93,20.55,10.94,26.89,11.83,8.33,26.14,11.61,40.21,13.67,6.59,1,13.21,1.8,19.71,3.28s12.87,4,19.26,6.32c17.49,6.23,36.26,6.68,52.11-4.22,8.81-6.05,17.77-13.18,20.39-24.06a26.05,26.05,0,0,0-9.69-26.95A90.3,90.3,0,0,0,716.32,441c-7.13-4-17-4.64-24,0-2.54,1.67-7.13,5.52-10.26,5.7q4.69-1.94,1-.51-1.57.57-3.18,1.08-2.8.87-5.67,1.51c-.82.19-1.64.37-2.47.52q-4,.66,1.35-.1c-1.22.75-4.41.39-5.85.43q-2.94.11-5.87,0c-1.12-.05-2.24-.14-3.35-.25q5.32.79,1.34.16c-6.51-1.06-12.44-1.05-18.35,2.4-4.94,2.89-9.65,8.56-10.94,14.23-2.61,11.47,3.49,27.14,16.63,29.3Z" transform="translate(-100.76 -54.61)"/><path class="cls-11" d="M710,437.74a6.09,6.09,0,0,0-.71-2.77,4.3,4.3,0,0,0-1.12-1.42,3.25,3.25,0,0,0-1.44-.92,3.38,3.38,0,0,0-1.72-.39,4.47,4.47,0,0,0-4.46,4.47,4.29,4.29,0,0,0,1.31,3.15,1.42,1.42,0,0,1,.22.2l-.7-.9a1.54,1.54,0,0,1,.23.39l-.45-1.07a1.09,1.09,0,0,1,.07.3l-.16-1.19v.15a4.62,4.62,0,0,0,1.31,3.16,4.54,4.54,0,0,0,3.15,1.31,4.48,4.48,0,0,0,3.16-1.31,4.6,4.6,0,0,0,1.31-3.16Z" transform="translate(-100.76 -54.61)"/><path class="cls-11" d="M734.77,464.13c5.75,0,5.76-8.93,0-8.93s-5.75,8.93,0,8.93Z" transform="translate(-100.76 -54.61)"/><path class="cls-11" d="M742.92,469.38a54.56,54.56,0,0,0-9-7.43,4.47,4.47,0,0,0-4.51,7.71,43.18,43.18,0,0,1,7.17,6,4.47,4.47,0,0,0,6.32-6.31Z" transform="translate(-100.76 -54.61)"/><path class="cls-11" d="M739.9,475.66l-.86-.34c-.5-.2-.57-.23-.21-.08q-.63-.27-1.26-.57c-1-.45-1.94-.94-2.89-1.45a4.47,4.47,0,1,0-4.5,7.72,69.28,69.28,0,0,0,7.34,3.33c2.18.86,5-.93,5.5-3.11a4.61,4.61,0,0,0-3.12-5.5Z" transform="translate(-100.76 -54.61)"/><path class="cls-11" d="M740.32,484.46q-4.62-2.32-9.14-4.81c-5-2.78-9.55,4.93-4.51,7.71q4.53,2.49,9.14,4.81a4.57,4.57,0,0,0,6.11-1.6,4.51,4.51,0,0,0-1.6-6.11Z" transform="translate(-100.76 -54.61)"/><path class="cls-11" d="M741.53,492a44.79,44.79,0,0,0-9-3.72A7.65,7.65,0,0,0,728,488a4.88,4.88,0,0,0-3.39,4.74c0,3,1.91,7.13,4.62,8.62a5.85,5.85,0,0,0,8.46-3.53c1.4-5.57-7.21-7.95-8.61-2.37l-.1.37,1.15-2,4,0c-.12-.23-.23-.46-.34-.69a1.5,1.5,0,0,1-.17-.46c-.18-.69-.22-.44-.13.75l-3.12,3.11c-1.08,0-1.14.09-.17.27l.69.21c.8.24,1.59.51,2.36.81a33.79,33.79,0,0,1,3.8,1.8c5.06,2.72,9.57-5,4.5-7.71Z" transform="translate(-100.76 -54.61)"/></g><g id="Calque_11" data-name="Calque 11"><path class="cls-12" d="M129.37,460.76A84.73,84.73,0,0,1,177,447.55c3.59.08,3.73-4.68.79-5.85s-5.73-2.28-8.57-3.47c-1.61-.67-8-2.41-8.68-4-.93-2.39-5.24-3.24-5.74,0-.21,1.39-5.56,4.35-6.75,5.41a56.29,56.29,0,0,0-6.63,7.17c-2.32,3,1.71,7.18,4.21,4.21,4.63-5.49,13.86-6.25,20.51-5.66,3.81.34,3.79-5.62,0-5.95-8.13-.73-19.13.77-24.72,7.4l4.21,4.21a53.84,53.84,0,0,1,8.84-9c2.29-1.81,5.59-3.06,6.07-6.2h-5.74c1.41,3.61,4.46,4.57,7.87,6.08,4.47,2,9,3.78,13.54,5.59l.79-5.85a90.6,90.6,0,0,0-50.65,14c-3.23,2-.24,7.19,3,5.14Z" transform="translate(-100.76 -54.61)"/><path class="cls-12" d="M301,403c21.49-12.75,47.29-20.58,72.35-15.85,21.5,4.07,41.14,17.05,50.93,36.92.93,1.9,4.23,2,5.14,0a50.69,50.69,0,0,0,4.66-24.8c-.26-3.8-6.21-3.83-6,0a44.52,44.52,0,0,1-3.84,21.8h5.14c-10.4-21.12-31.62-35.34-54.49-39.66-26.69-5-54,2.84-76.94,16.45-3.29,2-.3,7.1,3,5.14Z" transform="translate(-100.76 -54.61)"/><path class="cls-12" d="M325.61,381.5a11,11,0,0,0-3.64.94c-2.67,1.14-1.35,5.87,1.5,5.55,4.16-.47,7.45-2.22,11.16-4.06a62.1,62.1,0,0,1,14.51-5,63.86,63.86,0,0,1,30.41,1l.8-5.85c-6.74.76-13.45.3-20.21.35a68.76,68.76,0,0,0-9.07.62c-2.21.31-7.3,2.59-9.26,1.47l.6,4.67c6.89-5.67,15.84-7.34,24.38-8.93,3.78-.71,2.15-6.36-1.58-5.74a155.45,155.45,0,0,0-22.11,5.34l2.29,5.44c13.9-7.88,30.66-11.35,46.25-6.82a38.07,38.07,0,0,1,20.43,14c4.78,6.36,9.74,13.69,11,21.65.55,3.3,6.07,2.54,5.85-.79-.68-10.47-7.85-18.38-14.51-25.89s-14-14.12-23.78-16.84l-.79,5.85c10.78-.72,19.73,2.37,24.46,12.6,4.57,9.91,12.12,21.18,8.52,32.47l5.44-.71c-2.58-4.21-4.9-9-8.58-12.39-3.86-3.55-8.92-5.94-13.54-8.33-10.35-5.37-21.15-9.79-31.93-14.22l-1.58,5.74c8,2.39,16.08,4.8,23.94,7.74,7.58,2.84,15.49,5.9,21.22,11.83,2.69,2.79,6.7-1.34,4.21-4.21-11.41-13.13-28.89-16.56-43.54-24.7l-2.29,5.44c7.92,2.41,15.78,5,23.55,7.87s15.53,5.53,22.29,10.22l2.29-5.44c-15.73-5.66-27.16-19.17-43.39-23.87-3.16-.92-5.4,4-2.29,5.44q17.67,8.4,36,15.31c3.23,1.22,5.12-3.76,2.3-5.44-14.1-8.38-29.77-13.12-45.42-17.68l-.79,5.85c8.75,1,19.65-1.55,26.91,4.71l3.61-4.68c-6.64-5-13.45-9.76-21.8-11.19l-.79,5.84a70.33,70.33,0,0,1,12.57,1.92l.79-5.85a118.51,118.51,0,0,0-66,16.27c-3.3,1.94-.31,7.09,3,5.14a112.63,112.63,0,0,1,63-15.45c3.35.16,4-5.05.79-5.85a79.54,79.54,0,0,0-14.15-2.13c-3.3-.2-4.12,5.27-.79,5.85,7.86,1.35,14.13,5.9,20.37,10.59,2.69,2,6.16-2.47,3.61-4.67-8.94-7.69-20.29-5.27-31.12-6.45-3.42-.38-3.91,4.94-.79,5.84,15.16,4.42,30.33,9,44,17.08l2.3-5.44q-17.6-6.63-34.56-14.71l-2.29,5.44c16.11,4.67,27.66,18.21,43.39,23.87,3.36,1.21,4.89-3.63,2.29-5.44-6.64-4.62-14.39-7.34-21.92-10.15q-12.53-4.68-25.34-8.54c-3.22-1-5.25,3.8-2.29,5.44,14.14,7.86,31.33,11.11,42.33,23.77l4.21-4.21c-5.63-5.83-13-9.06-20.38-12-9-3.56-18.18-6.34-27.41-9.08-3.77-1.13-5,4.32-1.58,5.74,9.73,4,19.47,8,28.86,12.78,4.38,2.21,9.05,4.41,12.93,7.43s6.15,7.84,8.7,12a3,3,0,0,0,5.44-.71c4.23-13.25-4.09-27-9.81-38.51-5.54-11.17-17.07-14.88-28.91-14.09-3.25.21-4.16,4.9-.79,5.84,8.25,2.3,14.49,7.94,20.12,14.16,5.8,6.4,13.21,13.75,13.8,22.83l5.85-.79c-1.5-9.11-7.3-17.57-12.89-24.7a43.27,43.27,0,0,0-21.2-14.64c-17.46-5.67-36.69-1.94-52.38,7-2.89,1.63-1,6.48,2.29,5.44a155.45,155.45,0,0,1,22.11-5.34l-1.58-5.74c-9.74,1.81-19.2,4-27,10.46-1.49,1.24-.93,3.8.61,4.68a8.07,8.07,0,0,0,6.31.84c4.15-.87,8-1.89,12.28-2.05,7.66-.29,15.3.45,23-.42,3.14-.35,4.26-4.9.79-5.84a70.25,70.25,0,0,0-28.56-1.87,67,67,0,0,0-14,3.52c-4.92,1.83-9.9,5.68-15.11,6.25l1.51,5.55.63-.13c3.79-.35,3.82-6.3,0-5.95Z" transform="translate(-100.76 -54.61)"/><path class="cls-12" d="M269,425.54c14.27-3.94,26.17-13.85,39.92-19.23a127.48,127.48,0,0,1,42.48-8.94c27.12-.82,54.67,7.52,74.52,26.49,2.77,2.64,7-1.56,4.21-4.21-20.19-19.29-47.94-28.44-75.6-28.29A131.52,131.52,0,0,0,311.43,399a140,140,0,0,0-21.55,9.74c-7.34,4.1-14.29,8.77-22.49,11-3.69,1-2.12,6.76,1.58,5.74Z" transform="translate(-100.76 -54.61)"/><path class="cls-12" d="M301.9,404.93c8.32-1.48,16.19-4.38,24.27-6.75,9.07-2.66,17.64-3.23,27-3.39,8.41-.13,16.82-2.4,25.21-2a33.18,33.18,0,0,1,22.33,10.71l3.61-4.67c-12.42-8-26.56-12.3-41.17-14-7-.81-14.48-1.49-21.42-.11-7.39,1.46-13.71,6.35-21.31,6.9l.79,5.84a128,128,0,0,1,61-6c3.75.55,5.37-5.18,1.59-5.74a134.31,134.31,0,0,0-64.15,6c-3,1.05-2.76,6.11.8,5.85,6.35-.46,11.6-3.29,17.45-5.51,7-2.67,14.46-2.26,21.83-1.63,14.75,1.27,29.12,5.46,41.62,13.52,2.91,1.87,5.87-2.27,3.6-4.68a39.27,39.27,0,0,0-20.26-11.63c-9.36-2-18.44.6-27.8,1s-18.66.13-28,2.5c-9.61,2.46-18.81,6.21-28.6,7.95-3.77.67-2.17,6.41,1.58,5.74Z" transform="translate(-100.76 -54.61)"/><path class="cls-12" d="M414.77,407.53c-1.94-2.6-9-13.86-11.83-5.84a3,3,0,0,0,1.37,3.36,60.89,60.89,0,0,1,23.33,29.63c1.31,3.56,7.06,2,5.74-1.58a67.6,67.6,0,0,0-26.07-33.19l1.37,3.36.17-.47-2.08,2.08.54-.14-2.9-.77c2.08,1.73,3.61,4.41,5.22,6.57,2.26,3,7.43.07,5.14-3Z" transform="translate(-100.76 -54.61)"/><path class="cls-12" d="M436.47,436.26c6.4-18.89,20.14-36.42,37.38-46.52,18-10.58,38.62-12.22,59-9.82,3.8.44,3.76-5.51,0-6-22-2.58-44.25-.3-63.44,11.48-17.9,11-32,29.4-38.71,49.24-1.23,3.64,4.51,5.2,5.74,1.58Z" transform="translate(-100.76 -54.61)"/><path class="cls-12" d="M433.84,435c6.89-13.74,18.31-24,30.33-33.29,6.49-5,13.26-10.06,21-12.86a51.21,51.21,0,0,1,22.92-2.36c32,3.48,56.3,28.1,85.43,39.37,3.58,1.39,5.13-4.37,1.59-5.74-31.23-12.08-56.88-39-92-39.92-17-.47-30.22,7.3-43.25,17.36-12.37,9.56-24.08,20.27-31.18,34.44-1.71,3.41,3.42,6.43,5.14,3Z" transform="translate(-100.76 -54.61)"/><path class="cls-12" d="M438.77,431.24c6.4-19.95,30.24-30.37,49-34.83a104.68,104.68,0,0,1,62.16,4.42c2.74,1.07,5.14-3.12,2.9-5A68.87,68.87,0,0,0,496,381.07c-3.77.7-2.17,6.43,1.58,5.74a62.42,62.42,0,0,1,51,13.25l2.9-5A110.26,110.26,0,0,0,483,391.48c-20,5.41-43.22,17-50,38.18-1.17,3.65,4.57,5.22,5.74,1.58Z" transform="translate(-100.76 -54.61)"/><path class="cls-12" d="M478.92,392.92a153.6,153.6,0,0,0,15.88-1.46c4.54-.67,12.05-3.87,16.29-1.51l1.5-5.55c-7.85-.22-15.74-.38-23.48,1.1a28.62,28.62,0,0,0-8.84,2.81c-1.18.68-6.5,6.31-7.09,5.87l1.47,2.57c.06-.75,4.59-3.37,5.5-4,2.06-1.35,4.17-2.62,6.35-3.76a50.67,50.67,0,0,1,15.8-5.31c11.87-1.78,23.68,1.61,35,4.81l.79-5.85a38.29,38.29,0,0,1-13.69-4.35v5.14c9.33-4.38,19.73,8.22,25.94,13.63a47.76,47.76,0,0,1,4.86,4.57c1.15,1.34,2,3.25,3.31,4.47,2.27,2.12,4.62.91,7,2.13,3.39,1.77,6.32-3.18,3-5.14a85.29,85.29,0,0,1-13.72-10c-2.85-2.55-7.08,1.65-4.21,4.21a93.6,93.6,0,0,0,14.92,10.94l3-5.14c-1.65-.86-3.14-.46-4.74-1.05-2.14-.79-3.89-4.21-5.48-5.82-4-4.08-8.65-7.67-13-11.37-6.87-5.84-14.86-10.78-23.86-6.56-2,.95-1.87,4.15,0,5.14a46.44,46.44,0,0,0,16.69,5.17c3.4.4,3.93-5,.79-5.85-12-3.39-24.4-6.73-37-5-10.54,1.45-20.32,6.36-28.77,12.7-2.42,1.82-6.12,4.67-3.79,8.08,2.05,3,6.22,1.61,8.54-.16,1.94-1.48,3.27-3.71,5.39-4.95,2.4-1.4,5.63-1.92,8.31-2.38,6.92-1.18,14-.91,21-.71,2.95.08,4.06-4.13,1.5-5.55-4.38-2.44-8.75-1.33-13.41-.39A139.66,139.66,0,0,1,478.92,387c-3.82.15-3.84,6.11,0,5.95Z" transform="translate(-100.76 -54.61)"/><path class="cls-12" d="M437.65,406.66,438,406l-4.48-2.57a13,13,0,0,1-1.27,6.69l5.45,2.29a38.46,38.46,0,0,1,8.65-15.17l-5-2.9a127.22,127.22,0,0,1-8.5,21.19l5.14,3c2.76-6.44,5.58-12.84,10.4-18l-5-2.9A122.51,122.51,0,0,1,433,419.17l5.44,2.29c.85-5.88,4.77-11.36,7.79-16.38a74.06,74.06,0,0,1,11.3-14.81l-5-1.32c.55,3-3.55,8-5.21,10.42A82.1,82.1,0,0,1,439,409.61h4.21c-.63-.58,6.2-11.58,7.28-13.12,3.37-4.76,7.64-10,13.2-12.24L460,380.59a28.64,28.64,0,0,1-18.75,17.61l3.66,3.66a44.19,44.19,0,0,1,14.57-24.3l-5.08-2.1c-.16,7.24-8,16.56-14.37,19.42l4.48,2.57a24.56,24.56,0,0,1,9.67-17.16l-4.67-3.6a74.21,74.21,0,0,1-14.25,20.58l5.09,2.1c.05-7.52,8.88-15.45,14.77-19.29,7.55-4.91,16-5.5,24.81-5.74,3.83-.1,3.84-6.06,0-5.95-11,.3-21.25,1.53-30.27,8.28-6.86,5.14-15.2,13.6-15.27,22.7a3,3,0,0,0,5.08,2.11,79,79,0,0,0,15.18-21.79,3,3,0,0,0-4.68-3.61,30.28,30.28,0,0,0-11.41,21.37c-.24,2.49,2.65,3.39,4.48,2.57,8.43-3.78,17.1-15.23,17.31-24.56.06-2.75-3.22-3.71-5.08-2.11a49.47,49.47,0,0,0-16.1,26.93,3,3,0,0,0,3.66,3.66,34.9,34.9,0,0,0,22.91-21.77c.74-2-1.6-4.48-3.66-3.66-7.67,3.05-13.23,9.6-17.7,16.36-2.64,4-10.23,14.49-5.41,18.95a3,3,0,0,0,4.21,0,88.89,88.89,0,0,0,10.72-13.65c2.5-4,5.26-8,4.38-12.8-.41-2.27-3.49-2.78-5-1.31a80.81,80.81,0,0,0-12.23,16c-3.29,5.45-7.47,11.38-8.39,17.8-.46,3.16,3.56,5.39,5.44,2.29a129.86,129.86,0,0,0,11-23c1-2.82-3-5-5-2.89-5.2,5.6-8.35,12.28-11.33,19.24-1.46,3.42,3.36,6.49,5.14,3a136.35,136.35,0,0,0,9.1-22.6c.84-2.81-3-5.09-5-2.9A45.43,45.43,0,0,0,432,410.8c-1,3.16,4,5.38,5.45,2.29a19,19,0,0,0,2.07-9.69c-.09-2-2.56-4-4.47-2.57a7.21,7.21,0,0,0-2.52,2.82c-1.73,3.41,3.4,6.43,5.14,3Z" transform="translate(-100.76 -54.61)"/><path class="cls-12" d="M469.42,389.57a42.14,42.14,0,0,1,12.9-6.76c5.44-1.79,3.25-9.94-2.38-8.61-8.78,2.06-17.09,7.64-24.81,12.14l5.41,7a98.24,98.24,0,0,1,8.68-6.38c4.77-3.15.31-10.89-4.51-7.72A122.59,122.59,0,0,0,454.23,387c-4,3.29,1.13,9.51,5.41,7,7-4.08,14.73-9.37,22.68-11.24l-2.38-8.61a54.32,54.32,0,0,0-16.83,9.06c-4.53,3.53,1.83,9.8,6.31,6.31Z" transform="translate(-100.76 -54.61)"/><path class="cls-12" d="M475.45,361.46c-9,.22-17.66,3.78-23.46,10.77-8.8,10.59,1.95,24.37,14.43,18.7,3.91-1.78,7.82-3.53,11.78-5.2,2.05-.87,5.29-2.84,7.11-3,2.61-.19,7.56,1.94,10.41,2.75,4.19,1.21,8.35,2.52,12.49,3.9,6.1,2,13-2.35,14.65-8.32,1.78-6.49-2.19-12.6-8.32-14.64q-7.09-2.37-14.29-4.41c-5-1.4-10.43-3.27-15.68-3-5.48.31-10.3,2.69-15.28,4.79s-10,4.28-14.89,6.52l14.43,18.7c2.24-2.7,4-3.74,6.62-3.8,15.3-.37,15.36-24.18,0-23.81Z" transform="translate(-100.76 -54.61)"/><path class="cls-12" d="M645.06,447.76c14,4.72,28.56,6.7,43.19,8,12.9,1.15,26.78,3.12,38.6-3.47,2.43-1.35,1.54-4.56-.71-5.44-7-2.75-15-2-22.45-2q-12.93,0-25.86.33c-3.2.07-4.24,5.35-.79,5.84,8.34,1.2,15.73-1.4,23.05-5.24,4.64-2.44,11.46-6.24,6.64-12-2.14-2.58-6.6.83-4.67,3.61l6,8.71,3.36-4.37a40.7,40.7,0,0,0-11-1.12v5.95a51.25,51.25,0,0,1,16.62,1.89c3.69,1,5.26-4.7,1.58-5.74a56.23,56.23,0,0,0-18.2-2.1c-3.81.18-3.84,6.08,0,5.95a34.73,34.73,0,0,1,9.42.91c2.34.55,4.92-2.12,3.36-4.38l-6-8.71L702.52,438c-.37-.45-8.44,4.22-9.42,4.66-4.58,2-9.43,3.4-14.48,2.67l-.79,5.85q12-.26,23.94-.32c7.46,0,15.72-1,22.79,1.75l-.71-5.44c-11.16,6.22-25.31,3.62-37.44,2.48-13.5-1.26-26.88-3.28-39.76-7.63-3.64-1.23-5.2,4.52-1.59,5.74Z" transform="translate(-100.76 -54.61)"/><path class="cls-12" d="M694.77,454.17a34,34,0,0,1,12.05,1.63l.8-5.85a57.32,57.32,0,0,1-8.69-.45c-3.32-.42-4.06,5.17-.8,5.85,10.37,2.14,20.75,4.37,30.23,9.24a3,3,0,0,0,4.37-3.36c-1-3.93-5.24-5.81-7.2-9.36l-3.36,4.37a25.83,25.83,0,0,1,11,6V458c.35,3.26,1.52,4.26,3.53,3a6,6,0,0,0,.9-.4,3.66,3.66,0,0,0,1.42-1.5c.66-1.33.48-3.36-1.06-4.07l-.28-.13c-1.36-.62-3.34-.5-4.08,1.07l-.09.2c-1.62,3.45,3.51,6.47,5.14,3l.09-.2-4.07,1.07.28.13-1.07-4.07c.05-.09-3.5.91-4.21,1.79a3.89,3.89,0,0,0-.58,4c1.62,3.86,6,2.52,8.29.31a3,3,0,0,0,0-4.21,32.51,32.51,0,0,0-13.64-7.52,3,3,0,0,0-3.36,4.37,20.81,20.81,0,0,0,2.93,4.22c1,1.14,3.26,2.18,3.67,3.72l4.37-3.36c-10-5.12-20.75-7.59-31.64-9.84l-.79,5.84a56.06,56.06,0,0,0,8.69.46,3,3,0,0,0,.79-5.85,38.5,38.5,0,0,0-13.64-1.84c-3.82.16-3.84,6.11,0,5.95Z" transform="translate(-100.76 -54.61)"/></g><g id="Calque_1" data-name="Calque 1"><path class="cls-13" d="M434.75,431.93c-6-17.19,2.7-39.88,13-53.76,15-20.3,44-17.66,65-9.09,25,10.18,44.75,29.73,66.35,45.3,21.13,15.23,44.61,28.55,70.41,33.7,20.28,4,48.25,2.83,57.32-19.5,1.44-3.54-4.32-5.09-5.74-1.58-9.44,23.25-43.74,17.88-62.21,12.24-26.46-8.08-49.65-24-71.22-40.92-20.66-16.18-41.75-33.75-68-39.58-12-2.66-24.73-2.91-36.49.9-8.78,2.84-15.18,8.12-20.59,15.53-11.1,15.17-20.08,39.66-13.57,58.34,1.25,3.6,7,2.05,5.74-1.58Z" transform="translate(-100.76 -54.61)"/><path class="cls-13" d="M157.06,428.58C165,448,188.35,451.85,207,449.32c25.22-3.44,48.52-15,69.45-29.09,22-14.77,41.21-33.71,64.6-46.31,20-10.77,53.17-19.29,71.25-.41,7.55,7.89,12.52,18.47,15.56,28.86,2.74,9.37,4.5,20.1,1.2,29.56-1.26,3.62,4.49,5.18,5.74,1.58,5.88-16.87-1.15-38.09-9.8-52.76-4.17-7.09-9.7-14.27-17.1-18.22-10.81-5.76-24.19-6.66-36.11-5.1-26.48,3.46-48.22,19.47-68.65,35.5-21.48,16.85-43.56,33.58-69.34,43.33-12.75,4.82-26.67,8.5-40.41,7.77-11.94-.63-25.66-5-30.54-17-1.42-3.5-7.18-2-5.74,1.58Z" transform="translate(-100.76 -54.61)"/><path class="cls-13" d="M438.1,450.91c-5.38-7.36,3.51-13.59,9.47-16.74,10.2-5.4,22.11-7.25,33.49-7.95,24-1.48,47.94,2.78,70.78,9.92C573.79,443,595,452,617.05,458.6a327.64,327.64,0,0,0,69.5,13.23,154.21,154.21,0,0,0,33.68-.88c8.11-1.21,18-3.2,23.65-9.72,2.5-2.88-1.69-7.11-4.21-4.21C734,463.53,723,464.79,715,465.66a170.54,170.54,0,0,1-34.11-.26c-25.06-2.34-49.65-8.26-73.53-16.06-23.41-7.64-46.06-17.59-70-23.45-22.9-5.6-47.33-8-70.68-4-11.84,2-47.19,13.54-33.7,32,2.24,3.06,7.4.09,5.14-3Z" transform="translate(-100.76 -54.61)"/><path class="cls-13" d="M433.46,453.92c11.37-15.57-14.11-27.14-25.39-30.22-22.62-6.16-47.66-4.3-70.4.27-24.41,4.91-47.31,14.66-70.75,22.73s-47.51,14.54-72.12,17.68C182,466,168.93,467,156,466.05c-9.17-.64-22.7-1.51-29.23-9-2.51-2.89-6.71,1.33-4.21,4.21,4.75,5.47,12.59,7.64,19.42,9a132,132,0,0,0,29.57,2.06c23.49-.71,47-5.11,69.59-11.32,45.26-12.43,87.48-35.21,135.48-35,12.64.05,25.75,1.29,37.57,6.05,6.75,2.73,20.67,10,14.15,18.92-2.26,3.1,2.9,6.07,5.14,3Z" transform="translate(-100.76 -54.61)"/><path class="cls-14" d="M438.14,463.81c-5.38-7.37,3.51-13.6,9.47-16.75,10.2-5.39,22.1-7.25,33.49-7.95,24-1.48,47.93,2.78,70.77,9.92,22,6.87,43.16,15.89,65.22,22.46a327.64,327.64,0,0,0,69.5,13.23,153,153,0,0,0,33.68-.88c8.11-1.21,18-3.2,23.65-9.72,2.5-2.88-1.69-7.1-4.21-4.2-5.65,6.5-16.64,7.76-24.66,8.63a170.54,170.54,0,0,1-34.11-.26C655.88,476,631.29,470,607.4,462.23c-23.4-7.64-46.06-17.59-70-23.45-22.9-5.6-47.33-8-70.69-4-11.84,2-47.18,13.54-33.69,32,2.23,3.06,7.4.1,5.14-3Z" transform="translate(-100.76 -54.61)"/><path class="cls-14" d="M433.5,466.81c11.37-15.57-14.11-27.14-25.39-30.21-22.62-6.17-47.67-4.31-70.4.26-24.41,4.91-47.31,14.66-70.76,22.73s-47.5,14.54-72.12,17.68C182,478.91,169,479.85,156,479c-9.18-.65-22.7-1.52-29.23-9-2.52-2.9-6.71,1.32-4.21,4.2,4.75,5.48,12.58,7.65,19.42,9a132,132,0,0,0,29.57,2.06c23.49-.71,47-5.1,69.59-11.32,45.26-12.43,87.48-35.21,135.48-35,12.63.05,25.75,1.29,37.56,6.05,6.76,2.73,20.68,10,14.16,18.93-2.26,3.09,2.9,6.07,5.14,3Z" transform="translate(-100.76 -54.61)"/><path class="cls-15" d="M438.17,471.54c-5.37-7.36,3.52-13.6,9.48-16.75,10.2-5.39,22.1-7.25,33.49-8,24-1.48,47.93,2.78,70.77,9.92,22,6.87,43.16,15.9,65.22,22.46a327.55,327.55,0,0,0,69.49,13.23,153,153,0,0,0,33.68-.88c8.12-1.21,18-3.2,23.66-9.71,2.5-2.88-1.7-7.11-4.21-4.21-5.66,6.5-16.64,7.76-24.67,8.63A171.18,171.18,0,0,1,681,486c-25.06-2.35-49.65-8.27-73.54-16.07-23.4-7.64-46.06-17.59-70-23.45-22.9-5.6-47.33-8-70.69-4-11.84,2-47.18,13.54-33.7,32,2.24,3.06,7.41.1,5.14-3Z" transform="translate(-100.76 -54.61)"/><path class="cls-15" d="M433.54,474.54c11.37-15.57-14.12-27.14-25.39-30.21-22.63-6.17-47.67-4.31-70.4.26-24.41,4.91-47.31,14.66-70.76,22.73s-47.5,14.54-72.12,17.68c-12.85,1.64-25.87,2.58-38.81,1.68-9.18-.64-22.7-1.51-29.23-9-2.52-2.9-6.71,1.32-4.21,4.21,4.75,5.47,12.58,7.64,19.42,9a132.59,132.59,0,0,0,29.57,2.06c23.49-.72,47-5.11,69.59-11.33,45.26-12.43,87.48-35.21,135.48-35,12.63.05,25.75,1.29,37.56,6.06,6.75,2.72,20.68,10,14.16,18.92-2.26,3.09,2.9,6.07,5.14,3Z" transform="translate(-100.76 -54.61)"/><path class="cls-16" d="M438.21,480.52c-5.37-7.36,3.51-13.59,9.47-16.74,10.2-5.4,22.11-7.25,33.49-7.95,24-1.48,47.94,2.78,70.78,9.92,21.95,6.87,43.15,15.89,65.22,22.46a327.43,327.43,0,0,0,69.49,13.23,153.59,153.59,0,0,0,33.68-.88c8.11-1.21,18-3.2,23.65-9.72,2.5-2.88-1.69-7.1-4.21-4.21-5.65,6.51-16.63,7.77-24.66,8.64A170.44,170.44,0,0,1,681,495c-25.06-2.34-49.65-8.26-73.54-16.06-23.4-7.64-46.06-17.59-70-23.45-22.89-5.6-47.32-8-70.68-4-11.84,2-47.18,13.54-33.7,32,2.24,3.06,7.41.09,5.14-3Z" transform="translate(-100.76 -54.61)"/><path class="cls-16" d="M433.58,483.53c11.37-15.57-14.12-27.14-25.4-30.21-22.62-6.17-47.66-4.31-70.39.26-24.42,4.91-47.31,14.66-70.76,22.73S219.52,490.85,194.91,494c-12.85,1.64-25.87,2.58-38.81,1.67-9.18-.64-22.7-1.51-29.24-9-2.51-2.89-6.71,1.33-4.2,4.21,4.75,5.47,12.58,7.64,19.42,9a131.91,131.91,0,0,0,29.56,2.06c23.49-.71,47-5.11,69.59-11.32,45.27-12.43,87.48-35.21,135.49-35,12.63.05,25.75,1.29,37.56,6.05,6.75,2.73,20.68,10,14.16,18.92-2.27,3.1,2.9,6.08,5.14,3Z" transform="translate(-100.76 -54.61)"/><path class="cls-17" d="M438.25,489c-5.38-7.36,3.51-13.6,9.47-16.75,10.2-5.39,22.1-7.25,33.49-7.95,24-1.48,47.94,2.78,70.78,9.92,22,6.87,43.15,15.9,65.21,22.46a327.64,327.64,0,0,0,69.5,13.23,153,153,0,0,0,33.68-.88c8.11-1.21,18-3.2,23.65-9.71,2.5-2.88-1.69-7.11-4.21-4.21-5.65,6.5-16.64,7.76-24.66,8.63a170.54,170.54,0,0,1-34.11-.26c-25.06-2.34-49.65-8.26-73.53-16.06-23.41-7.64-46.06-17.59-70-23.45-22.9-5.6-47.33-8-70.68-4-11.84,2-47.19,13.54-33.7,32,2.24,3.06,7.4.1,5.14-3Z" transform="translate(-100.76 -54.61)"/><path class="cls-17" d="M433.61,492c11.37-15.57-14.11-27.14-25.39-30.21-22.62-6.17-47.66-4.31-70.4.26-24.41,4.91-47.31,14.66-70.75,22.73S219.56,499.27,195,502.41c-12.85,1.64-25.87,2.58-38.82,1.68-9.17-.64-22.7-1.52-29.23-9-2.51-2.9-6.71,1.32-4.21,4.21,4.75,5.47,12.59,7.64,19.42,9a132.59,132.59,0,0,0,29.57,2.06c23.49-.72,47-5.11,69.59-11.33,45.26-12.43,87.48-35.21,135.48-35,12.64,0,25.75,1.29,37.57,6,6.75,2.73,20.67,10,14.15,18.93-2.26,3.09,2.9,6.07,5.14,3Z" transform="translate(-100.76 -54.61)"/></g><g id="Calque_3" data-name="Calque 3"><path class="cls-14" d="M154.49,427c.16,3.74-4.46,7.34-7,9.76s-4.95,4.58-7.57,6.68a117.42,117.42,0,0,1-18.24,11.84c-3.38,1.81-.38,6.95,3,5.14a122.88,122.88,0,0,0,22.06-14.93c5.2-4.44,14-10.9,13.66-18.49-.17-3.82-6.12-3.84-5.95,0Z" transform="translate(-100.76 -54.61)"/><path class="cls-14" d="M703.18,427.25c-.12,7.65,8.74,13.82,14.1,18.15a124.09,124.09,0,0,0,22.44,14.35c3.41,1.71,6.43-3.43,3-5.14a122,122,0,0,1-17.8-10.77,104.08,104.08,0,0,1-8.51-7c-2.56-2.36-7.34-5.83-7.27-9.56s-5.89-3.83-6,0Z" transform="translate(-100.76 -54.61)"/></g><g id="Calque_10" data-name="Calque 10"><path class="cls-18" d="M195,470.64s-11.8,55.6-17.89,70.83,4.91,7,11,1,13.52-15,13.52-15-1,20.6-2.36,24.79S199.63,578.16,220,540s25-79.95,25-79.95Z" transform="translate(-100.76 -54.61)"/><path class="cls-19" d="M198.63,469.66s-11.74,52.5-18.09,67.11,5.31,6.78,11.81,1.13a198.32,198.32,0,0,0,14.28-14.34s-.9,19.84-2.27,23.86.6,24.94,22-11.59,24.21-77.7,24.21-77.7Z" transform="translate(-100.76 -54.61)"/></g></svg>